<svg xmlns="http://www.w3.org/2000/svg" viewBox="0 0 918.57 151.11"><defs><style>.cls-1{fill:#fff;}.cls-2{fill:#3763eb;}</style></defs><title>footer-logo</title><g id="_Tipo_" data-name="&lt;Tipo&gt;"><text x="-20.16" y="-44.13"/></g><g id="ContaUX."><path class="cls-1" d="M110.45,194.92a80.43,80.43,0,0,1-54.87-21.21,72.87,72.87,0,0,1-17-23.21,68.35,68.35,0,0,1,.05-56.65A73.69,73.69,0,0,1,55.62,70.6a80,80,0,0,1,54.66-21.2A82.93,82.93,0,0,1,134.84,53a74.23,74.23,0,0,1,19.89,9.14l-13.94,28a40.61,40.61,0,0,0-12.71-6.2,53.1,53.1,0,0,0-15.59-2.3,48.87,48.87,0,0,0-17.55,3.06,43.39,43.39,0,0,0-14.07,8.59,40.07,40.07,0,0,0-9.44,12.87,39.46,39.46,0,0,0,0,32.05,40.22,40.22,0,0,0,9.44,12.88,43.54,43.54,0,0,0,14.07,8.58,48.87,48.87,0,0,0,17.55,3.06,53.09,53.09,0,0,0,15.59-2.29,40.41,40.41,0,0,0,12.71-6.21l13.94,28a74.16,74.16,0,0,1-19.46,9.05A81.75,81.75,0,0,1,110.45,194.92Z" transform="translate(-20.16 -44.13)"/><path class="cls-1" d="M214.83,194.92A58.42,58.42,0,0,1,188.31,189a47.24,47.24,0,0,1-18.7-16.32,42.54,42.54,0,0,1-6.89-24,42.57,42.57,0,0,1,6.89-24,47.24,47.24,0,0,1,18.7-16.32,62.55,62.55,0,0,1,53,0,47.31,47.31,0,0,1,18.7,16.32,42.57,42.57,0,0,1,6.88,24,42.53,42.53,0,0,1-6.88,24A47.31,47.31,0,0,1,241.35,189,58.48,58.48,0,0,1,214.83,194.92Zm0-26.35a19.63,19.63,0,0,0,9.9-2.55,19.2,19.2,0,0,0,7.1-7,20,20,0,0,0,2.63-10.32,20.19,20.19,0,0,0-2.63-10.42,19,19,0,0,0-7.1-7,20.87,20.87,0,0,0-19.81,0,18.89,18.89,0,0,0-7.09,7,20.1,20.1,0,0,0-2.64,10.42A19.86,19.86,0,0,0,197.83,159a19.1,19.1,0,0,0,7.09,7A19.64,19.64,0,0,0,214.83,168.57Z" transform="translate(-20.16 -44.13)"/><path class="cls-1" d="M287.16,192.2v-87h31V114a40.78,40.78,0,0,1,13.09-8.46,41.84,41.84,0,0,1,16.06-3.1A34.69,34.69,0,0,1,365,106.9a33.1,33.1,0,0,1,12.24,12.15,34.64,34.64,0,0,1,4.51,17.81V192.2h-31V143.58q0-7.91-4.38-12.46t-11.85-4.54a17.56,17.56,0,0,0-8.63,2,14.25,14.25,0,0,0-5.7,5.61,16.78,16.78,0,0,0-2,8.33V192.2Z" transform="translate(-20.16 -44.13)"/><path class="cls-1" d="M440.58,194.92q-14.19,0-22-8.93t-7.82-24.82V128.7H398V105.16h12.75V72.52h30.94v32.64h18.19V128.7H441.69v30.09q0,4.17,1.66,6.29a5.8,5.8,0,0,0,4.88,2.13,12.34,12.34,0,0,0,7.4-2.72l7.82,24.82a45.22,45.22,0,0,1-11.05,4.16A50.34,50.34,0,0,1,440.58,194.92Z" transform="translate(-20.16 -44.13)"/><path class="cls-1" d="M520.06,194.92a40.76,40.76,0,0,1-21.76-6,43.58,43.58,0,0,1-15.56-16.49A48.78,48.78,0,0,1,477,148.51,49.66,49.66,0,0,1,482.45,125a42.28,42.28,0,0,1,15.21-16.49,41.4,41.4,0,0,1,22.4-6.07,44,44,0,0,1,15.72,2.8,35.71,35.71,0,0,1,12.58,7.91v-8h31v87h-31v-9a43.81,43.81,0,0,1-13.26,8.75A38.77,38.77,0,0,1,520.06,194.92Zm9.35-26.27a19.61,19.61,0,0,0,10.2-2.63,18.58,18.58,0,0,0,6.88-7.14,20.86,20.86,0,0,0,2.47-10.2,20.3,20.3,0,0,0-2.55-10.25,19.71,19.71,0,0,0-34.13,0,20,20,0,0,0-2.59,10.2,20.58,20.58,0,0,0,2.55,10.24,18.64,18.64,0,0,0,7,7.14A19.84,19.84,0,0,0,529.41,168.65Z" transform="translate(-20.16 -44.13)"/><path class="cls-1" d="M664.13,194.92q-27.2,0-41.14-13.22t-13.94-39.14V44.13h32.64V133q0,16.32,5.06,23t17.3,6.71q12.24,0,17.29-6.71t5.06-23V44.13h32.81v98.43q0,25.92-13.94,39.14T664.13,194.92Z" transform="translate(-20.16 -44.13)"/><path class="cls-1" d="M732.56,192.2l53-75.57L741.31,52h39l25.41,37.57L831,52h39l-44.2,64.68,53,75.57H838.3l-32.56-47-32.64,47Z" transform="translate(-20.16 -44.13)"/><path class="cls-2" d="M916.59,195.24a22.7,22.7,0,0,1-11.49-3,21.51,21.51,0,0,1-8.08-8.07,22.7,22.7,0,0,1-2.94-11.5A21.61,21.61,0,0,1,897,161.61a22.07,22.07,0,0,1,8.08-8,22.87,22.87,0,0,1,22.61,0,22.63,22.63,0,0,1,8,8,21.37,21.37,0,0,1,3,11.11,22.44,22.44,0,0,1-3,11.5,22,22,0,0,1-8,8.07A21.66,21.66,0,0,1,916.59,195.24Z" transform="translate(-20.16 -44.13)"/></g></svg>