<svg xmlns="http://www.w3.org/2000/svg" xmlns:xlink="http://www.w3.org/1999/xlink" width="512" zoomAndPan="magnify" viewBox="0 0 384 383.999986" height="512" preserveAspectRatio="xMidYMid meet" version="1.0"><defs><g/><clipPath id="9ea0b122a3"><path d="M 273.964844 241.832031 L 331.730469 241.832031 L 331.730469 299.597656 L 273.964844 299.597656 Z M 273.964844 241.832031 " clip-rule="nonzero"/></clipPath><clipPath id="6dbc79246a"><path d="M 302.847656 241.832031 C 286.894531 241.832031 273.964844 254.761719 273.964844 270.714844 C 273.964844 286.664062 286.894531 299.597656 302.847656 299.597656 C 318.800781 299.597656 331.730469 286.664062 331.730469 270.714844 C 331.730469 254.761719 318.800781 241.832031 302.847656 241.832031 Z M 302.847656 241.832031 " clip-rule="nonzero"/></clipPath></defs><rect x="-38.4" width="460.8" fill="#ffffff" y="-38.399999" height="460.799983" fill-opacity="1"/><rect x="-38.4" width="460.8" fill="#0d6efd" y="-38.399999" height="460.799983" fill-opacity="1"/><g clip-path="url(#9ea0b122a3)"><g clip-path="url(#6dbc79246a)"><path fill="#ffffff" d="M 273.964844 241.832031 L 331.730469 241.832031 L 331.730469 299.597656 L 273.964844 299.597656 Z M 273.964844 241.832031 " fill-opacity="1" fill-rule="nonzero"/></g></g><g fill="#ffffff" fill-opacity="1"><g transform="translate(34.329698, 305.310732)"><g><path d="M 186.777344 -63.492188 C 174.820312 -49.542969 157.167969 -41 136.382812 -41 C 96.234375 -41 67.765625 -73.742188 67.765625 -113.886719 C 67.765625 -154.035156 96.234375 -186.777344 136.382812 -186.777344 C 157.167969 -186.777344 174.820312 -178.234375 186.777344 -164.285156 L 218.949219 -196.171875 C 197.882812 -217.242188 168.554688 -230.339844 136.382812 -230.339844 C 72.035156 -230.339844 19.929688 -178.234375 19.929688 -113.886719 C 19.929688 -49.542969 72.035156 2.5625 136.382812 2.5625 C 168.554688 2.5625 197.882812 -10.535156 218.949219 -31.605469 Z M 186.777344 -63.492188 "/></g></g></g></svg>